<svg version="1.1" id="Layer_1" xmlns="http://www.w3.org/2000/svg" xmlns:xlink="http://www.w3.org/1999/xlink" x="0px" y="0px"
	 width="100%" viewBox="0 0 721 721" enable-background="new 0 0 721 721" xml:space="preserve">
<path fill="#FFFFFF" opacity="1.000000" stroke="none" 
	d="
M486.000000,1.000000 
	C564.653992,1.000000 643.307922,1.000000 721.980957,1.000000 
	C721.980957,241.281860 721.980957,481.563721 721.980957,721.922791 
	C481.756927,721.922791 241.513840,721.922791 1.135373,721.922791 
	C1.135373,481.666718 1.135373,241.333374 1.135373,1.000000 
	C79.766808,1.000000 158.420776,1.000000 237.537369,1.468657 
	C238.000000,192.139816 238.000000,382.342316 238.000000,573.920715 
	C239.167816,572.105225 239.729309,571.524231 239.957947,570.833130 
	C243.321945,560.664673 245.554779,549.949524 250.218307,540.422546 
	C257.836151,524.860352 267.325439,510.225555 275.427429,494.883789 
	C279.068634,487.988892 282.170044,480.734375 282.101837,472.414368 
	C281.958099,454.882660 275.948883,438.844971 270.248779,422.720947 
	C261.897217,399.096863 252.316330,375.774292 255.966858,349.786804 
	C257.441345,339.290253 259.811829,329.173950 266.751007,320.789459 
	C273.359528,312.804443 283.585419,314.572906 286.986298,324.435242 
	C289.958191,333.053680 292.117157,341.952026 295.075562,350.575623 
	C297.778534,358.454559 301.991821,365.798187 311.140991,366.842041 
	C323.551636,368.258026 334.329254,361.994690 337.825836,349.128784 
	C340.142975,340.602661 341.383301,331.627686 341.846313,322.787628 
	C342.713593,306.229889 342.660095,289.624115 343.001892,273.038544 
	C343.326447,257.285950 343.673462,241.533829 343.998077,225.781235 
	C344.339813,209.195679 344.662720,192.609741 345.001099,176.024109 
	C345.329254,159.938263 345.677368,143.852814 345.997070,127.766808 
	C346.343262,110.348000 346.805969,92.929985 346.962128,75.509331 
	C347.129791,56.805855 347.000000,38.099720 347.000000,19.203583 
	C358.136383,19.203583 367.875122,19.203583 379.000000,19.203583 
	C379.000000,31.942558 378.872894,44.487041 379.032135,57.027893 
	C379.232147,72.781998 379.673492,88.532990 379.998077,104.285591 
	C380.339813,120.871147 380.660156,137.457153 381.001892,154.042709 
	C381.326447,169.795303 381.693695,185.547043 381.992981,201.300110 
	C382.355591,220.385254 382.628265,239.472168 383.013275,258.556824 
	C383.277313,271.643982 383.686218,284.728180 383.994690,297.814514 
	C384.350281,312.899719 384.738800,327.984741 384.975220,343.071991 
	C385.139313,353.543549 386.438446,363.844727 390.075928,373.665436 
	C393.776215,383.655762 399.720459,391.762054 411.172516,393.536652 
	C414.123230,393.993866 417.279327,393.329681 420.317963,392.979736 
	C433.390900,391.474091 441.385895,386.134766 447.148834,373.233002 
	C448.983063,369.126556 451.636810,364.225159 455.285889,362.340027 
	C462.180328,358.778290 470.969818,363.243500 474.784576,370.347656 
	C481.284790,382.452789 480.436584,395.064850 476.079346,407.210724 
	C471.923523,418.795074 465.999054,429.737427 461.018555,441.035370 
	C454.229736,456.435272 450.836090,472.412323 451.861389,489.416656 
	C452.520142,500.341980 455.904266,510.268951 460.483124,519.899780 
	C466.483185,532.520081 473.139404,544.833435 478.949066,557.536926 
	C481.612244,563.360352 482.929626,569.799194 484.857330,575.958984 
	C485.238220,575.938843 485.619110,575.918640 486.000000,575.898499 
	C486.000000,384.265686 486.000000,192.632843 486.000000,1.000000 
M278.500000,702.000000 
	C299.787750,702.000000 321.075500,702.000000 342.363251,702.000000 
	C336.216309,700.747498 330.100739,699.950684 324.011566,698.986877 
	C308.515533,696.534180 293.670013,692.269409 280.077545,684.052307 
	C261.137817,672.602600 248.534058,656.508301 242.974686,635.010376 
	C241.683838,630.018738 240.401428,625.024902 239.115143,620.032104 
	C238.887634,620.055420 238.660126,620.078735 238.432617,620.102051 
	C238.432617,647.334106 238.432617,674.566162 238.432617,702.000000 
	C251.561844,702.000000 264.530914,702.000000 278.500000,702.000000 
M459.458862,676.025024 
	C440.047272,693.216492 416.292725,698.848694 391.447327,701.788818 
	C422.837189,701.788818 454.227020,701.788818 485.808472,701.788818 
	C485.808472,675.861084 485.808472,650.131897 485.808472,624.402771 
	C481.587097,643.677002 474.496643,661.477173 459.458862,676.025024 
z"/>
<path fill="#000000" opacity="1.000000" stroke="none" 
	d="
M485.531342,1.000000 
	C486.000000,192.632843 486.000000,384.265686 486.000000,575.898499 
	C485.619110,575.918640 485.238220,575.938843 484.857330,575.958984 
	C482.929626,569.799194 481.612244,563.360352 478.949066,557.536926 
	C473.139404,544.833435 466.483185,532.520081 460.483124,519.899780 
	C455.904266,510.268951 452.520142,500.341980 451.861389,489.416656 
	C450.836090,472.412323 454.229736,456.435272 461.018555,441.035370 
	C465.999054,429.737427 471.923523,418.795074 476.079346,407.210724 
	C480.436584,395.064850 481.284790,382.452789 474.784576,370.347656 
	C470.969818,363.243500 462.180328,358.778290 455.285889,362.340027 
	C451.636810,364.225159 448.983063,369.126556 447.148834,373.233002 
	C441.385895,386.134766 433.390900,391.474091 420.317963,392.979736 
	C417.279327,393.329681 414.123230,393.993866 411.172516,393.536652 
	C399.720459,391.762054 393.776215,383.655762 390.075928,373.665436 
	C386.438446,363.844727 385.139313,353.543549 384.975220,343.071991 
	C384.738800,327.984741 384.350281,312.899719 383.994690,297.814514 
	C383.686218,284.728180 383.277313,271.643982 383.013275,258.556824 
	C382.628265,239.472168 382.355591,220.385254 381.992981,201.300110 
	C381.693695,185.547043 381.326447,169.795303 381.001892,154.042709 
	C380.660156,137.457153 380.339813,120.871147 379.998077,104.285591 
	C379.673492,88.532990 379.232147,72.781998 379.032135,57.027893 
	C378.872894,44.487041 379.000000,31.942558 379.000000,19.203583 
	C367.875122,19.203583 358.136383,19.203583 347.000000,19.203583 
	C347.000000,38.099720 347.129791,56.805855 346.962128,75.509331 
	C346.805969,92.929985 346.343262,110.348000 345.997070,127.766808 
	C345.677368,143.852814 345.329254,159.938263 345.001099,176.024109 
	C344.662720,192.609741 344.339813,209.195679 343.998077,225.781235 
	C343.673462,241.533829 343.326447,257.285950 343.001892,273.038544 
	C342.660095,289.624115 342.713593,306.229889 341.846313,322.787628 
	C341.383301,331.627686 340.142975,340.602661 337.825836,349.128784 
	C334.329254,361.994690 323.551636,368.258026 311.140991,366.842041 
	C301.991821,365.798187 297.778534,358.454559 295.075562,350.575623 
	C292.117157,341.952026 289.958191,333.053680 286.986298,324.435242 
	C283.585419,314.572906 273.359528,312.804443 266.751007,320.789459 
	C259.811829,329.173950 257.441345,339.290253 255.966858,349.786804 
	C252.316330,375.774292 261.897217,399.096863 270.248779,422.720947 
	C275.948883,438.844971 281.958099,454.882660 282.101837,472.414368 
	C282.170044,480.734375 279.068634,487.988892 275.427429,494.883789 
	C267.325439,510.225555 257.836151,524.860352 250.218307,540.422546 
	C245.554779,549.949524 243.321945,560.664673 239.957947,570.833130 
	C239.729309,571.524231 239.167816,572.105225 238.000000,573.920715 
	C238.000000,382.342316 238.000000,192.139816 238.000000,1.468657 
	C268.687561,1.000000 299.375122,1.000000 330.620636,1.354791 
	C332.625946,4.791362 335.602203,7.333961 338.316956,5.770938 
	C343.456177,2.811991 346.729767,6.518416 351.486572,7.936111 
	C352.002960,5.569446 352.501495,3.284723 353.000000,0.999999 
	C397.020905,1.000000 441.041779,1.000000 485.531342,1.000000 
z"/>
<path fill="#FFFFFF" opacity="1.000000" stroke="none" 
	d="
M352.531433,0.999999 
	C352.501495,3.284723 352.002960,5.569446 351.486572,7.936111 
	C346.729767,6.518416 343.456177,2.811991 338.316956,5.770938 
	C335.602203,7.333961 332.625946,4.791362 331.089294,1.354791 
	C338.020966,1.000000 345.041901,1.000000 352.531433,0.999999 
z"/>
<path fill="#000000" opacity="1.000000" stroke="none" 
	d="
M278.000000,702.000000 
	C264.530914,702.000000 251.561844,702.000000 238.432617,702.000000 
	C238.432617,674.566162 238.432617,647.334106 238.432617,620.102051 
	C238.660126,620.078735 238.887634,620.055420 239.115143,620.032104 
	C240.401428,625.024902 241.683838,630.018738 242.974686,635.010376 
	C248.534058,656.508301 261.137817,672.602600 280.077545,684.052307 
	C293.670013,692.269409 308.515533,696.534180 324.011566,698.986877 
	C330.100739,699.950684 336.216309,700.747498 342.363251,702.000000 
	C321.075500,702.000000 299.787750,702.000000 278.000000,702.000000 
z"/>
<path fill="#000000" opacity="1.000000" stroke="none" 
	d="
M459.718842,675.779236 
	C474.496643,661.477173 481.587097,643.677002 485.808472,624.402771 
	C485.808472,650.131897 485.808472,675.861084 485.808472,701.788818 
	C454.227020,701.788818 422.837189,701.788818 391.447327,701.788818 
	C416.292725,698.848694 440.047272,693.216492 459.718842,675.779236 
z"/>
</svg>